<svg height="24" viewBox="0 0 24 24" width="24" xmlns="http://www.w3.org/2000/svg"><path d="m17.5 11.75c2.6233526 0 4.75 2.1266474 4.75 4.75s-2.1266474 4.75-4.75 4.75c-2.0980128 0-3.8783371-1.3601865-4.5072404-3.2468271h-1.9855192c-.6289033 1.8866406-2.40922757 3.2468271-4.5072404 3.2468271-2.62335256 0-4.75-2.1266474-4.75-4.75s2.12664744-4.75 4.75-4.75c2.4545808 0 4.4743111 1.8618164 4.724028 4.2502862h1.551944c.2497169-2.3884698 2.2694472-4.2502862 4.724028-4.2502862zm-11 2c-1.51878306 0-2.75 1.2312169-2.75 2.75s1.23121694 2.75 2.75 2.75 2.75-1.2312169 2.75-2.75-1.23121694-2.75-2.75-2.75zm11 0c-1.5187831 0-2.75 1.2312169-2.75 2.75s1.2312169 2.75 2.75 2.75 2.75-1.2312169 2.75-2.75-1.2312169-2.75-2.75-2.75zm-1.9880613-10.75c1.2144226 0 2.2850605.79658742 2.6340223 1.95979331l1.0061091 3.35114056c.7925489.13191121 1.5682093.28711721 2.3269692.46564896.5376035.12649493.8708728.66485305.7443779 1.20245647-.126495.5376035-.6648531.8708728-1.2024565.7443779-2.7555386-.6483621-5.7622987-.9734172-9.0209607-.9734172-3.25866198 0-6.26542206.3250551-9.02096067.9734172-.53760345.1264949-1.07596157-.2067744-1.2024565-.7443779-.12649493-.53760342.20677438-1.07596154.74437784-1.20245647.75844139-.1784568 1.53376908-.33360743 2.32597103-.46548281l1.00710732-3.35130671c.34896177-1.16320589 1.41959968-1.95979331 2.63402228-1.95979331z" fill="#212121"/></svg>